<?xml version="1.0"?>
<svg xmlns="http://www.w3.org/2000/svg" id="svg158" viewBox="0 0 955 673">
  <defs>
    <style>
      .cls-1, .cls-2 {
        isolation: isolate;
      }

      .cls-2 {
        font-size: 21px;
      }

      .cls-10, .cls-13, .cls-14, .cls-17, .cls-18, .cls-19, .cls-2 {
        font-family: Arial-BoldMT, Arial;
        font-weight: 700;
      }

      .cls-13, .cls-3 {
        letter-spacing: -0.074em;
      }

      .cls-17, .cls-23, .cls-4 {
        fill: #28cc2d;
      }

      .cls-4, .cls-5, .cls-6, .cls-7 {
        stroke: #fff;
        stroke-miterlimit: 10;
        stroke-width: 0.75px;
      }

      .cls-21, .cls-5 {
        fill: #ffe135;
      }

      .cls-14, .cls-20, .cls-6 {
        fill: #d82e3f;
      }

      .cls-22, .cls-7 {
        fill: #63cad8;
      }

      .cls-8, .cls-9 {
        fill: none;
        stroke: #a9a9a9;
      }

      .cls-8 {
        stroke-width: 1.003px;
      }

      .cls-9 {
        stroke-width: 0.945px;
      }

      .cls-10, .cls-13, .cls-14, .cls-17, .cls-18, .cls-19, .cls-24 {
        font-size: 15px;
      }

      .cls-10, .cls-13, .cls-19 {
        fill: #fff;
      }

      .cls-11 {
        letter-spacing: -0.018em;
      }

      .cls-12 {
        letter-spacing: -0.037em;
      }

      .cls-15 {
        letter-spacing: -0.037em;
      }

      .cls-16 {
        letter-spacing: -0.018em;
      }

      .cls-18 {
        fill: #eac71c;
      }

      .cls-19 {
        letter-spacing: -0.055em;
      }

      .cls-24 {
        font-family: ArialMT, Arial;
      }
    </style>
  </defs>
  <g>
    <g id="title">
      <g id="text2917" class="cls-1">
        <switch><text class="cls-2" transform="translate(382.616 59.562)" id="trsvg72-ro" systemLanguage="ro"><tspan id="trsvg1-ro">Segregarea educa&#x21B;ional&#x103; &#xEE;n Statele Unite</tspan><tspan x="40.472" y="25.2" id="trsvg2-ro">&#xCE;nainte de Brown</tspan><tspan class="cls-3" x="192.137" y="25.2" id="trsvg3-ro">v.</tspan><tspan x="202.258" y="25.2" id="trsvg4-ro">Board of Education</tspan></text><text class="cls-2" transform="translate(382.616 59.562)" id="trsvg72"><tspan id="trsvg1">Educational Segregation in the United States</tspan><tspan x="40.472" y="25.2" id="trsvg2">Prior to Brown </tspan><tspan class="cls-3" x="192.137" y="25.2" id="trsvg3">v</tspan><tspan x="202.258" y="25.2" id="trsvg4">. Board of Education</tspan></text></switch>
      </g>
    </g>
    <g id="States">
      <path id="RI" class="cls-4" d="M864.746,244.718l-.468-4.075-.783-4.231-1.646-5.72,5.563-1.488,1.567,1.1,3.291,4.231,2.819,4.31-2.821,1.489-1.254-.157-1.1,1.724-2.35,1.88Z"/>
      <path id="CT" class="cls-4" d="M863.9,244.938l-.608-4.075-.783-4.231-1.567-5.8-4.025.877-21.154,4.623.626,3.212L837.8,246.6v7.835l-1.1,2.193,1.776,2.045,4.8-3.3,3.448-3.134,1.88-2.037.784.627,2.663-1.411,5.015-1.1Z"/>
      <path id="MA" class="cls-4" d="M889.858,238.929l2.106-.664.443-1.663,1,.111,1,2.216-1.219.444-3.767.11Zm-9.086.776,2.216-2.548h1.552l1.773,1.44-2.327,1-2.106,1Zm-33.731-21.314,16.924-4.074,2.193-.627,2.038-3.134,3.622-1.612,2.8,4.278-2.35,5.014-.314,1.41,1.881,2.508,1.1-.784h1.723l2.194,2.507,3.761,5.8,3.447.47,2.194-.94,1.724-1.724-.784-2.664-2.037-1.567-1.41.784-.94-1.254.47-.47,2.037-.156,1.724.783,1.88,2.351.94,2.82.314,2.351-4.075,1.41-3.76,1.88-3.761,4.388-1.881,1.41v-.94l2.351-1.41.47-1.724-.783-2.977-2.821,1.41-.784,1.41.471,2.194-2,.97-2.663-4.388-3.291-4.231-2.007-1.757-6.333,1.819-4.936,1.018-21.154,4.623-.391-4.793.627-10.264,5.015-.862,6.581-1.254"/>
      <path id="ME" class="cls-5" d="M912.383,145.37l1.88,2.038,2.194,3.6v1.88l-2.037,4.544-1.88.627-3.291,2.978-4.7,5.327h-1.254c-.626,0-.94-2.037-.94-2.037l-1.724.157-.94,1.41-2.35,1.411-.94,1.41,1.567,1.41-.471.627-.47,2.664-1.88-.157V171.7l-.313-1.253-1.411.313-1.723-3.134-2.038,1.254,1.254,1.41.313,1.1-.783,1.253.313,2.978.157,1.567-1.567,2.507-2.821.47-.313,2.821-5.171,2.977-1.254.47-1.567-1.41-2.977,3.447.94,3.134-1.41,1.254-.157,4.231-1.089,6.067-2.386-1.121-.47-2.977-3.761-1.1-.314-2.664-7.051-22.721-4.07-13.222,1.377-.114,1.467.4v-2.507l.784-5.328,2.507-4.544,1.41-3.918-1.88-2.35v-5.8l.784-.94.783-2.664-.157-1.41-.156-4.7,1.723-4.7,2.821-8.619,2.037-4.074h1.254l1.253.157v1.1l1.254,2.194,2.664.627.783-.783v-.941l3.918-2.82,1.723-1.724,1.411.157,5.8,2.35,1.88.94,8.775,28.99h5.8l.784,1.88.156,4.7,2.821,2.194h.784l.156-.47-.47-1.1Zm-20.289,29.223,1.488-1.489,1.332,1.019.549,2.35-1.646.862Zm6.5-5.72,1.723,1.8s1.254.079,1.254-.235.235-1.958.235-1.958l.862-.784-.784-1.724-1.958.706Z"/>
      <path id="NH" class="cls-5" d="M871.269,208.467l.842-1.043,1.057-3.19-2.465-.886-.47-2.977-3.761-1.1-.314-2.664-7.051-22.721-4.46-14.1-.87,0-.627,1.567-.626-.47-.941-.94-1.41,1.88-.047,4.878.3,5.493,1.881,2.664v3.917l-3.605,4.908-2.507,1.1v1.1l1.1,1.723v8.305l-.783,8.932-.157,4.7.94,1.254-.157,4.388-.47,1.723,1.411.859,15.887-4.546,2.193-.626,1.488-2.474Z"/>
      <path id="VT" class="cls-5" d="M835.932,219.422l-.784-5.484-2.317-9.666-.627-.314-2.82-1.253.783-2.821-.783-2.037-2.618-4.5.941-3.761-.784-5.015-2.35-6.268-.781-4.771,25.442-6.541.314,5.641,1.881,2.664v3.917l-3.6,3.918-2.508,1.1v1.1l1.1,1.723v8.306l-.783,8.931-.157,4.7.94,1.254-.156,4.388-.471,1.723.641,1.519-6.738,1.332Z"/>
      <path id="NY" class="cls-4" d="M820.685,254.023l-1.1-.94-2.507-.157-2.194-1.881-1.58-5.941-3.353.088-2.368-2.625L788.8,246.815l-41.682,8.461-7.3,1.191-.715-6.27,1.384-1.091,1.254-1.1.94-1.567,1.723-1.1,1.881-1.724.47-1.567,2.037-2.663,1.1-.941-.157-.94-1.253-2.977-1.724-.157-1.88-5.954,2.82-1.724,4.231-1.41,3.918-1.254,3.134-.47,6.111-.157,1.88,1.254,1.567.156,2.037-1.253,2.508-1.1,5.014-.47,2.037-1.724,1.724-3.134,1.567-1.88h2.037l1.88-1.1.157-2.194-1.41-2.037-.314-1.41,1.1-2.037v-1.411h-1.723l-1.724-.783-.784-1.1-.156-2.507,5.641-5.328.627-.784,1.41-2.82,2.821-4.388,2.663-3.6,2.038-2.35,2.341-1.77,2.986-1.208,5.328-1.253,3.134.156,4.388-1.41,7.333-2.008.5,4.827,2.35,6.268.784,5.015-.941,3.761,2.508,4.387.783,2.037-.783,2.821,2.82,1.253.627.314,2.977,10.655-.519,4.905-.471,10.5.784,5.328.783,3.447,1.411,7.052v7.835l-1.1,2.193,1.783,1.932.772,1.627-1.881,1.724.314,1.253,1.253-.313,1.411-1.254,2.194-2.507,1.1-.627,1.567.627,2.194.157,7.679-3.761,2.82-2.664,1.254-1.41,4.074,1.567-3.291,3.447-3.761,2.821-6.894,5.171-2.508.94-5.641,1.88-3.917,1.1-1.139-.516-.236-3.576.47-2.663-.157-2.038-2.727-1.646-4.388-.941-3.761-1.1Z"/>
      <path id="NJ" class="cls-4" d="M820.245,254.9l-2.037,2.35v2.978l-1.88,2.977-.157,1.567,1.254,1.253-.157,2.351-2.194,1.1.784,2.664.156,1.1,2.664.313.94,2.507,3.448,2.351,2.35,1.567v.783l-3.134,2.978-1.567,2.193-1.41,2.664-2.194,1.254-1.175.705-.235,1.175-.591,2.527,1.059,2.175,3.134,2.821,4.7,2.194,3.918.627.156,1.41-.783.94.313,2.664h.784l2.037-2.35.783-4.7,2.664-3.918,2.978-6.268,1.1-5.328-.626-1.1-.157-9.088-1.567-3.291-1.1.783-2.664.314-.47-.47,1.1-.94,2.037-1.881.061-1.06-.372-3.329.47-2.663-.157-2.038-2.507-1.1-4.388-.941-3.761-1.1Z"/>
      <path id="PA" class="cls-4" d="M814.474,289.924l1.1-.627,2.194-.594,1.41-2.664,1.567-2.193,3.134-2.978v-.783l-2.35-1.567-3.447-2.351-.941-2.507-2.664-.313-.156-1.1-.784-2.664,2.194-1.1.157-2.351-1.254-1.253.157-1.567,1.88-2.977v-2.978l2.272-2.35.208-1.05-2.507-.157-2.194-1.881-2.35-5.171-2.913-.9-2.258-2.075-18.021,3.917-41.682,8.462-8.619,1.411-.48-6.867-5.319,5.457-1.254.471-4.073,2.916,2.821,18.55,2.406,9.431,3.462,18.671,3.169-.618,11.577-1.457,36.763-7.43,14.42-2.737,8.045-1.572.259-.231,2.037-1.567Z"/>
      <path id="DE" class="cls-6" d="M814.616,293.766l.571-2.039.021-1.168-1.231-.085-2.037,1.567-1.41,1.41,1.41,4.074,2.194,5.485,2.037,9.4,1.567,6.111,4.858-.157,5.953-1.174-2.194-7.13-.941.47-3.447-2.35-1.724-4.544-1.88-3.448-2.194-.94-2.037-3.447Z"/>
      <path id="OH" class="cls-4" d="M726.489,259.437l-5.907,3.929-3.761,2.193-3.29,3.6-3.918,3.76-3.134.784-2.821.47-5.327,2.507-2.037.157L693,273.865l-5.015.626-2.507-1.41-2.308-1.309-4.742.682-9.872,1.567-7.522,1.175,1.254,14.181,1.723,13.32,2.508,22.721.548,4.683,4-.125,2.35-.783,3.261,1.457,2.007,4.231,4.981-.017,1.834,2.054,1.707-.064,2.461-1.3,2.427.36,1.913,1.41,1.674-2.067L697.955,334l2.007-.66.627,2.664,1.724.94,3.369,2.272,2.115-.078,1.11-1.114-.063-1.344,1.567-1.41.157-4.858.94-3.761,1.474-1.4,1.473.876.8,1.174,1.174-.17-.41-2.337-.547-.624v-2.35l.941-1.254,2.193-3.291,1.254-1.41,2.037.47,2.194-1.567,2.977-3.291,2.194-3.76.2-5.265.47-4.858v-4.544l-1.1-2.977.94-1.41.892-.926-1.362-9.541Z"/>
      <path id="MI" class="cls-4" d="M581.269,149.954l1.773-2,2.105-.775,5.208-3.768,2.216-.554.443.443-4.986,4.987-3.213,1.883-2,.887ZM664.8,181.1l.627,2.429,3.134.157,1.254-1.176s-.079-1.41-.392-1.567a14,14,0,0,1-1.567-1.8l-2.116.235-1.567.157-.313,1.1Zm29.144,61.115-3.134-7.992-2.194-8.775-2.35-3.134-2.507-1.723-1.567,1.1-3.761,1.724-1.881,4.858-2.664,3.6-1.1.627-1.411-.627s-2.507-1.41-2.35-2.037.47-4.858.47-4.858l3.291-1.253.783-3.291.627-2.507,2.35-1.567-.313-9.716-1.567-2.194-1.254-.783-.783-2.037.783-.784,1.567.314.157-1.567-2.35-2.194-1.254-2.507h-2.507l-4.388-1.411-5.328-3.29h-2.664l-.626.627-.941-.471L652.1,188.15l-2.82,1.723-2.821,2.194.313,3.448.941.313,2.037.47.47.784-2.507.783-2.508.313L643.8,199.9l-.313,2.037.313,1.567.313,5.328-3.447,2.037-.627-.157V206.64l1.254-2.35.627-2.351-.784-.783-1.88.783-.941,4.074-2.663,1.1-1.724,1.881-.157.94.627.783-.627,2.508-2.194.47v1.1l.784,2.35-1.1,5.955-1.567,3.917.627,4.545.47,1.1L630.009,235l-.313.783-.313,2.664,3.447,5.8,2.821,6.268,1.41,4.7-.784,4.545-.94,5.8-2.35,5.015-.314,2.664-3.159,2.99,4.274-.157,20.761-2.194,7.055-.956.093,1.615,6.642-1.175,9.982-1.457,3.736-.447.134-.57.156-1.41,2.037-3.6,1.939-1.685-.215-4.9,1.548-1.548,1.057-.332.216-3.447,1.488-2.938,1.019.587.157.627.783.157,1.88-.941Zm-126.368-64,.695-.562,2.663-.784,3.448-2.194v-.94l.627-.627,5.8-.94,2.35-1.88,4.231-2.037.157-1.254,1.88-2.82,1.724-.784,1.253-1.724,2.194-2.193,4.231-2.351,4.544-.47,1.1,1.1-.313.94-3.6.94-1.411,2.978-2.193.783-.47,2.351-2.351,3.134-.313,2.507.783.47.94-1.1,3.448-2.821,1.253,1.254h2.194l3.134.94,1.41,1.1,1.411,2.977,2.664,2.664,3.76-.156,1.411-.941,1.567,1.254,1.567.47,1.253-.783h1.1l1.567-.941,3.918-3.447,3.29-1.1,6.425-.313,4.388-1.881,2.507-1.253,1.41.156v5.485l.47.313,2.821.784,1.88-.47,5.955-1.567,1.1-1.1,1.41.47v6.738l3.134,2.977,1.254.627,1.253.94-1.253.314-.784-.314-3.6-.47-2.037.627-2.194-.157-3.134,1.411h-1.723l-5.642-1.254-5.014.157-1.88,2.507-6.739.627-2.35.783-1.1,2.977-1.254,1.1-.47-.156-1.41-1.567-4.388,2.35h-.626l-1.1-1.567-.784.157-1.88,4.231-.94,3.917-3.084,6.786-1.14-1-1.33-1-1.881-9.972-3.436-1.328-1.99-2.216-11.748-2.66-2.768-1-7.978-2.106L571.18,183.2Z"/>
      <path id="WY" class="cls-7" d="M360.878,209.777,350.652,209l-31.1-3.195-15.734-1.994-27.48-3.989-19.279-2.881-1.376,10.833-3.721,23.516-5.1,29.474-1.484,10.193-1.619,11.525,6.324.9,25.085,2.424,19.938,2.236,35.655,3.989,23.09,2.772,4.366-42.836,1.4-24.6Z"/>
      <path id="MT" class="cls-5" d="M363.223,188.935l.628-10.809L366.04,154.1c.443-4.876,1.05-8.213,1.329-14.938l.911-14.105-29.733-2.721-28.363-3.448-28.362-3.917-31.34-5.171-17.864-3.291-31.72-6.72-4.341,20.692,3.324,7.313-1.33,4.433,1.773,4.432,3.1,1.329,4.479,10.439,2.612,3.079.443,1.108,3.324,1.109.444,1.994-6.87,17.064v2.437l2.437,3.1h.887l4.654-2.881.664-1.108,1.552.665-.222,5.1,2.659,12.188,2.881,2.438.887.665,1.773,2.216-.444,3.324.665,3.324,1.108.886,2.216-2.216h2.66l3.1,1.552,2.438-.887h3.989l3.545,1.551,2.66-.443.443-2.881,2.881-.664,1.329,1.329.444,3.1,1.725,1.323,1.486-11.21,20.057,2.88,27.324,3.834,16.046,1.839,30.481,3.35,10.653,1.477,1.019-14.954Z"/>
      <path id="ID" class="cls-4" d="M154.149,241.6l4.291-16.965,4.211-17.175,1.329-4.1,2.438-5.762-1.219-2.216-2.437.111-.776-1,.443-1.108.333-2.991,4.321-5.319,1.773-.443,1.108-1.108.554-3.1.886-.664,3.768-5.651,3.767-4.211.222-3.657-3.325-2.548-1.274-4.266.388-9.363L178.5,134.11l4.321-20.166,3.657-13.075.738-3.686,12.6,2.45-4.03,20.848,2.857,7.469-1.018,4.432,1.928,4.432,3.1,1.641,4.323,9.506,2.613,3.7.6,1.108,3.325,1.108.443,2.461-6.714,16.286.311,3.216,2.593,2.791,1.82.467,4.653-3.5.354-.486.151.82.245,4.008,2.5,12.5,3.348,2.593.419.82,2.084,2.372-.754,2.7.665,3.635,1.886.887,2.06-1.594,2.5-.467,3.258,1.551,2.438-.575,3.678-.156,3.856,1.552,2.66-.288.91-2.259,2.414-1.6.707,1.641.6,2.169,2.237,2.461-3.656,23.246L246.2,259.248l-4.032-.309-7.933-1.485-9.506-1.773-11.79-2.305-12.143-2.427-8.223-1.784-8.975-1.617-8.952-1.728C152.724,241.61,160.928,243.06,154.149,241.6Z"/>
      <path id="WA" class="cls-4" d="M108.2,76.579l4.231,1.41,9.4,2.664,8.3,1.881,19.431,5.484L171.818,93.5l14.7,3.29-.974,3.765-3.967,13.386-4.322,20.166-3.079,15.645-.341,9.091-12.776-3.775-15.093-3.279-13.247.578-1.533-1.486-5.163,1.839-3.854-.243-2.638-1.706-1.53.509-4.076-.222-1.818-1.329-4.63-1.684-1.4-.2-4.833-1.285-1.728,1.462L94,147.692l-4.673-3.677.2-.776.066-7.69-2.06-3.768-3.989-.709-.354-2.282-2.437-.608-2.793-.519-1.724.941-2.194-2.821.314-2.821,2.664-.313,1.567-3.918-2.508-1.1.157-3.605,4.231-.626L77.8,110.74l-1.41-6.895.627-2.821V93.346l-1.724-3.134,2.194-9.089,2.037.471,2.35,2.82,2.664,2.507L87.67,88.8l4.388,2.037,2.977.627,2.821,1.41,3.29.94,2.194-.157v-2.35l1.254-1.1,2.037-1.254.313,1.1.314,1.724-2.194.47-.313,2.037,1.723,1.411,1.1,2.35.627,1.88,1.41-.156.157-1.254-.94-1.253-.47-3.134.783-1.724L108.511,91V88.8l1.724-3.448-1.1-2.507-2.35-4.7.313-.783Zm-9.167,5.8,1.959-.157.47,1.332,1.489-1.567h2.272l.784,1.489-1.489,1.645.627.783-.7,1.959-1.332.392s-.862.078-.862-.235a17.854,17.854,0,0,1,1.41-2.507l-1.645-.549-.314,1.411-.7.626L99.5,84.8Z"/>
      <path id="CA" class="cls-4" d="M150.042,445.3l3.7-.474,1.44-1.949.71-1.882-3.079-.087-1.066-1.709.754-1.662-.044-5.962,2.15-1.287,2.614-2.5.4-4.765,1.6-3.39,1.883-2.039,3.169-1.662,1.24-.707.733-1.439-.842-.865-.931-1.464-.908-5.184-2.814-5.076.094-2.7-2.134-3.148-14.538-22.517-18.837-27.833-21.739-32.02L91.277,294.028l1.742-6.987,6.6-25.153,7.867-30.471L95.5,228.183l-13.075-3.324L70.24,220.87l-7.313-2-11.08-2.881-6.835-2.337-1.531,4.579-.157,7.208L38.31,236.883l-2.978,2.508-.313,1.1-1.724.784-1.41,4.074-.783,3.134,2.663,4.074,1.567,4.075,1.1,3.447-.313,6.268-1.724,2.977-.627,5.641-.94,3.6,1.724,3.76,2.664,4.388,2.194,4.7,1.253,3.918-.313,3.134-.314.47v2.037l5.485,6.111-.47,2.351-.627,2.193-.627,1.881.157,7.991,2.037,3.605,1.88,2.507,2.664.47.941,2.664-1.1,3.447-2.037,1.567h-1.1l-.784,3.761.47,2.821,3.134,4.23,1.567,5.172,1.411,4.544,1.253,2.977,3.291,5.641,1.41,2.508.47,2.82,1.567.94v2.351l-.783,1.88L58.524,382.3l-.47,1.88,2.35,2.664,4.075.47,4.387,1.724,3.761,2.037h2.821l2.82,2.978,2.507,4.7,1.1,2.193,3.761,2.037,4.7.784,1.41,2.037.627,3.134-1.41.627.313.94,3.134.784,2.664.156,2.821,4.545,3.761,4.074.783,2.194,2.507,4.074.314,3.134v9.088l.47,1.724,9.715,1.41,19.118,2.664Zm-85.25-48.191,1.254,1.489-.157,1.253-3.134-.078-.548-1.175-.627-1.411Zm1.881,0,1.175-.627,3.447,2.037,2.978,1.175-.862.627-4.388-.235-1.567-1.567ZM86.73,416.3l1.724,2.272.784.94,1.488.549.549-1.411-.94-1.723-2.586-1.959-1.019.156Zm-1.41,8.383,1.724,3.056,1.175,1.88-1.41.235-1.254-1.175a8.592,8.592,0,0,1-.705-1.8v-2.115Z"/>
      <path id="AZ" class="cls-7" d="M151.016,446.023l-2.546,2.092-.313,1.41.47.941,18.334,10.342,11.752,7.365,14.26,8.305,16.3,9.715,11.909,2.351,24.357,2.622,2.453-12.124,3.637-26.407,6.752-51.258,4.126-30.016L238.662,367.8l-26.371-4.432-32.4-6.124-2.832,17.537-.443.443-1.662,2.549-2.438-.111L171.293,375l-2.659-.333-.886-1.108h-.887l-.886.554-1.884,1-.111,6.759-.221,1.662-.554,12.188-1.441,2.1-.554,3.214,2.66,4.764,1.218,5.651.776,1,1,.554-.111,2.217-1.551,1.329-3.324,1.662-1.884,1.884-1.44,3.546L158,428.405l-2.77,2.659-2,.665-.11,5.651-.444,1.662.444.776,3.545.554-.554,2.659-1.44,2.106Z"/>
      <path id="NV" class="cls-5" d="M153.838,242.536l20.336,4.373,9.419,1.883,8.975,1.773,6.411,1.583-.541,5.685L195,274.631,191.036,294l-1.884,9.421-2.1,12.874L183.989,332.2l-3.414,15.2-1.908,9.868-2.39,16.256-.443,1.065-1.04,2.393-1.815-.111-1.063-2.659-2.66-.488-1.353-.952-1.975.311-.886.709-1.262,1.309-.422,6.759-.533,1.662-.4,11.721-1.282,1.662-1.818-2.192-14.072-22.05-18.837-28.144-22.05-32.8-12-18.012,1.586-6.365,6.759-25.152,7.646-30.386,32.576,7.892,13.3,2.881"/>
      <path id="UT" class="cls-5" d="M262.7,370.229l-23.886-3.367-25.749-4.743-32.789-5.835,1.54-8.876,3.1-14.737,3.214-16.067,2.105-13.185,1.884-8.643,3.656-19.834,3.435-16.953,1.08-5.4,12.327,2.189,11.635,1.994,9.972,1.773,8.089,1.33,3.565.464-1.44,10.3L242.2,283.41l7.568.9,15.9,1.749,7.959.83-2.065,21.294-3.1,21.873-3.637,26.972L263.214,367.8Z"/>
      <path id="CO" class="cls-4" d="M384.5,319.329l1.4-20.628-31.11-2.971-23.713-2.616-36.121-3.989L274.9,286.687l-2.548,21.5-3.1,21.718-3.637,27.127-1.46,10.767-.243,2.679,32.885,3.678,36.583,4.135,30.98,3.069,16.1.821"/>
      <path id="NM" class="cls-7" d="M291.545,488.232l-.63-5.936,8.378.51,28.611,2.97,27.522,1.4,1.905-21.648,3.612-54.161,1.084-18.794,1.952.338-.014-10.735-31.215-2.329-35.805-4.291-33.407-3.989-4.072,29.814-6.751,51.57-3.637,26.095-1.987,12.9,14.987,1.929,1.253-9.716,16.14,2.507Z"/>
      <path id="OR" class="cls-5" d="M153.5,241.677l4.165-17.351L162.184,207l1.019-4.1,2.282-5.451-.6-1.127-2.438-.045-1.242-1.619.443-1.419.488-3.147,4.322-5.319,1.773-1.065,1.108-1.108,1.44-3.457,3.923-5.5,3.456-3.744.222-3.345-3.169-2.393-1.172-4.372-12.832-3.63-14.626-3.435-14.958.111-.444-1.329-5.318,1.994-4.321-.554-2.327-1.551-1.219.665-4.543-.222-1.662-1.33-5.1-1.994-.776.111-4.21-1.441-1.884,1.773-5.983-.332-5.762-3.989.665-.776.221-7.535-2.216-3.767-3.989-.554-.665-2.438-2.281-.452-5.621,2L72,137.379l-3.134,9.715-3.134,6.268L60.875,167l-6.268,13.163-7.835,12.223-1.881,2.82-.783,8.305-1.254,5.8,2.625,3.419L52,214.905,63.238,218.1l7.625,2.462L82.9,224.081l12.92,3.48,12.763,3.456"/>
      <path id="ND" class="cls-5" d="M474.34,194.164l-.354-7.266-1.928-7.092-1.773-13.23-.443-9.529-1.929-3.013-1.551-5.187v-9.972l.665-3.768-2.051-5.33-27.551-.547L419.4,128.6l-25.7-1.254-24.181-1.826L368.3,139.318l-1.33,14.626-2.189,24.182-.471,10.682,55.072,3.649Z"/>
      <path id="SD" class="cls-5" d="M475.786,267.359l-.925-1.048-1.474-3.515,1.773-3.588,1.019-5.385-2.5-1.994-.288-2.66.576-2.9,2.084-.778.287-5.559-.066-29.163-.6-2.881-3.988-3.479-.953-1.929v-1.862l1.839-1.24,1.485-1.8.177-2.636-55.621-1.551-54.451-3.767-.743,5.117-1.564,15.382-1.3,17.4L359,251.36l15.536,1,19.035,1.108,17.441,1.264,23.047,1.263,10.416-.754,2.772,2.216,4.187,2.881.952.731,3.433-.863,3.923-.288,2.659-.066,3.018,1.174,4.408,1.4,3.037,1.707.6,1.862.886,1.839.684-.467Z"/>
      <path id="NE" class="cls-5" d="M486.882,309.824l1.33,2.593.089,2.06,2.282,3.612,2.636,3.056h-4.894l-42.149-.91-39.535-.863-20.542-.931,1.04-20.674-32.354-2.659L359,252.449l15.069,1,19.5,1.108,17.285,1.108L433.9,256.77l10.415-.443,2,2.216,4.653,2.881,1.108.886,4.211-1.329,3.767-.444,2.66-.221,1.772,1.329,4.876,1.552,2.881,1.551.443,1.551.886,2h1.773l.774.044.952,5.053,2.659,7.779,1.2,4.5,2.061,3.7.509,4.786,1.395,4.144.533,6.271"/>
      <path id="IA" class="cls-4" d="M566.7,265.854l.166,1.883,2.216,1.1,1.106,1.218.333,1.223,3.768,3.1.665,2.106-.775,2.774L572.74,282.7l-.775,2.658-2.106,1.552-1.663.555-5.317,1.44-.665,2.213-.775,2.214.555,1.33,1.663,1.661v3.549l-2.1,1.551-.445,1.442v2.439l-1.443.443L558,307.078l-.442,1.44.442,1.664-1.332,1.168-2.224-2.609L553.01,306.2l-8.084.775-9.859.553-24.269.666-12.635.222-9.086.222-1.275.117-1.6-4.334-.222-6.427L484.425,294l-.665-5.1-2.216-3.546-.886-4.653L478,273.391l-1.108-5.208-1.329-2.105-1.551-2.66,1.772-4.21,1.33-5.541-2.659-1.994-.443-2.659.886-2.438h12.853l48.089-.665,19.267-.665,1.794,2.663,1.776,2.541.442.78-1.775,2.664.442,4.092,2.437,3.768,2.878,1.768,2.331.223Z"/>
      <path id="IN" class="cls-4" d="M616.941,362.036l.063-2.77.47-4.388,2.194-2.821,1.724-3.76,2.507-4.075-.47-5.641-1.724-2.664-.313-3.134.783-5.328-.47-6.738L620.452,305.2,619.2,290.317l-.941-11.36,2.977.862,1.41.94,1.1-.313,2.037-1.88L628.521,277l4.937-.157,21.311-2.194,5.4-.516,1.457,15.466,4.121,35.711.58,5.6-.36,2.194,1.19,1.74.093,1.33-2.444,1.551-3.43,1.5-3.1.534-.58,4.717-4.435,3.211-2.71,3.888.313,2.3-.563,1.488h-3.225L645.54,353.8l-2.417,1.223-2.6,1.457.157,2.961-1.158.25-.453-.987-2.1-1.457-3.15,1.3-1.5,2.914-1.394-.783-1.41-1.551-4.327.47-5.421.941Z"/>
      <path id="IL" class="cls-4" d="M616.344,362.76v-3.494l.25-4.718,2.3-3.041,1.724-3.65,2.507-3.745-.36-5.091-1.944-3.434-.093-3.244.673-5.108-.8-6.958-1.033-15.293-1.254-14.557-.894-11.282-.264-.893-.784-2.507-1.253-3.6-1.567-1.724-1.41-2.507-.227-5.321-9.6,1.272-26.371,1.662-8.421-.415.222,2.3,2.216.665.886,1.108.443,1.773,3.768,3.324.664,2.216-.664,3.324-1.773,3.546-.665,2.438-2.216,1.772-1.773.665-5.1,1.33-.665,1.773-.665,1.994.665,1.33,1.773,1.551-.222,3.989-1.772,1.551-.665,1.552v2.659l-1.773.443-1.551,1.108-.222,1.33.222,1.994L557,312.116l-1,2.715.444,3.546,2.216,7.091,7.091,7.313,5.319,3.546-.222,4.211.886,1.329,6.206.444,2.659,1.329-.665,3.546-2.216,5.762-.665,3.1,2.216,3.768,6.2,5.1,4.432.664,2,4.876,1.994,3.1-.886,2.881,1.551,3.989,1.773,2,1.885-.768.665-2.1,1.974-1.394L604,377.1l2.994,1.144,2.787,1.033.767-.2-.063-1.2-1.034-2.68.424-2.3,2.21-1.52,2.287-.957L615.5,370l-.563-1.284-.737-2.1,1.207-1.224Z"/>
      <path id="MN" class="cls-4" d="M474.9,194.941l-.443-8.2-1.773-7.091-1.773-13.075-.443-9.529-1.773-3.325-1.551-4.875v-9.972l.665-3.768-1.766-5.284,29.208.034.314-7.992.626-.156,2.194.47,1.881.783.783,5.328,1.41,5.955,1.567,1.567h4.7l.314,1.41,6.111.313v2.038h4.7l.314-1.254,1.1-1.1,2.193-.627,1.254.94h2.821l3.76,2.508,5.171,2.35,2.351.47.47-.94,1.41-.47.47,2.821,2.508,1.253.47-.47,1.253.157v2.037l2.508.94h2.977l1.567-.783,3.134-3.134,2.507-.471.784,1.724.47,1.254h.94l.94-.784,8.619-.313,1.723,2.977h.627l.692-1.051,4.3-.359-.593,2.209-3.818,1.781-8.962,3.937-4.628,1.945L556.2,159.63l-2.351,3.448-2.194,3.76-1.723.784-4.388,4.858-1.254.156-3.723,2.844-2.73,3.064-.222,2.879.22,7.54-1.548,1.551-5.1,3.987-1.776,5.542,2.441,3.536.445,2.443-1.113,2.882-.22,3.548.443,6.866,3.321,3.981h2.884l2.433,2.223,3.1,1.323,3.547,4.88,6.87,4.869,1.775,2,.226,5.333-19.956.665-58.4.445-.328-34.582-.443-2.881-3.989-3.324-1.108-1.773v-1.551l2-1.551,1.329-1.33Z"/>
      <path id="WI" class="cls-4" d="M611.63,261.543l.359-2.878-1.567-4.388-.627-5.955-1.1-2.35.94-2.977.784-2.821,1.41-2.507-.627-3.291-.626-3.447.47-1.724,1.88-2.35.157-2.664-.784-1.254.627-2.507.47-3.134,2.664-5.485,2.821-6.581.156-2.194-.313-.94-.784.47-4.074,6.111-2.664,3.918-1.88,1.724-.784,2.193-1.41.784-1.1,1.88-1.41-.313-.157-1.724,1.254-2.35,2.037-4.545,1.724-1.567,1.067-2.221-1.58-.877-1.33-1.33-1.551-9.972-3.546-1.108-1.33-2.216-12.188-2.66-2.438-1.108-7.978-2.216-7.978-1.108-4.041-5.239-.513,1.223-1.1-.157-.627-1.1-2.664-.784-1.1.157-1.723.94-.941-.626.627-1.881,1.881-2.977,1.1-1.1-1.88-1.41-2.037.783-2.821,1.881-7.208,3.134-2.82.626-2.821-.47-.952-.851-2.051,2.748-.222,2.659v8.2l-1.108,1.551-5.1,3.767L530.3,200.7l.443.222,2.438,1.994.665,3.1-1.773,3.1v3.768l.443,6.426L535.4,222.2h3.324l1.773,3.1,3.324.443,3.767,5.54,6.87,3.989,2,2.659.886,7.2.665,3.213,2.216,1.551.221,1.33-1.994,3.324.222,3.1,2.437,3.768,2.438,1.108,2.881.443,1.3,1.338h8.892l25.267-1.442Z"/>
      <path id="KS" class="cls-7" d="M505.431,385.567l-12.231.2-44.675-.443-43.19-2-23.874-1.219,4.016-62.734,21.164.776,39.224,1.329,42.771.444h4.939l3.147,3.126,2.683.221.863,1.042v1.948l-1.773,1.551-.443,2.527,2.15,3.48,2.438,3.036,2.437,1.929,1.019,10.835Z"/>
      <g>
        <path id="FL" class="cls-6" d="M749.715,502.25l2.2,7.094,3.615,9.443,5.171,9.088,3.6,6.112,4.7,5.328,3.918,3.6,1.567,2.82-1.1,1.254-.784,1.253,2.821,7.209,2.821,2.82,2.507,5.171,3.447,5.642,4.388,7.991,1.254,7.365.47,11.6.626,1.724-.313,3.29-2.35,1.254.313,1.88-.627,1.881.314,2.35.47,1.881-2.664,3.134-2.978,1.41-3.76.157-1.411,1.567-2.35.94-1.254-.47-1.1-.94-.313-2.821-.784-3.291-3.29-5.014-3.448-2.194-3.761-.313-.783,1.253-2.977-4.231-.627-3.447-2.507-3.917-1.724-1.1-1.567,2.037-1.724-.314-2.037-4.857-2.82-3.761-2.821-5.171-2.507-2.978-3.448-3.6,2.037-2.35,3.134-5.328-.156-1.567-4.388-.94-1.567.627.314.626,2.507.941-1.411,4.387-.783.47-1.724-3.917-1.253-4.7-.314-2.664,1.411-4.544v-9.246l-2.978-3.6-1.253-2.977-5.015-1.254-1.88-.627-1.567-2.507-3.291-1.567-1.1-3.29-2.664-.941-2.35-3.6-4.074-1.41-2.821-1.41h-2.507l-3.918.783-.156,1.881.783.94-.47,1.1-2.977-.157-3.6,3.447-3.448,1.881h-3.761l-3.134,1.253-.313-2.664-1.567-1.88-2.821-1.1-1.567-1.41-7.835-3.761-7.364-1.724-4.231.627-5.8.47-5.8,2.037-3.373.6-.23-7.8-2.508-1.881-1.723-1.723.313-2.978,9.872-1.253,24.759-2.821,6.581-.627,5.27.272,2.507,3.761,1.41,1.41,7.85.5,10.487-.627,20.853-1.254,5.278-.653,4.437.026.157,2.821,3.707.783.313-4.659-1.567-4.387.926-.711,4.955.441Zm12.16,128.342,2.351-.627,1.253-.235,1.411-2.272,2.272-1.567,1.253.47,1.646.313.392,1.019-3.37,1.175-4.074,1.411-2.272,1.175Zm13.085-4.858,1.175,1.019,2.664-2.037,5.171-4.075,3.6-3.76L790,610.456l.94-1.645.157-3.291-.705.47-.94,2.742-1.411,4.466-3.134,5.093-4.231,4.074-3.29,1.881Z"/>
        <path id="SC" class="cls-6" d="M755.369,470.68l-1.722.94-2.507-1.254-.627-2.037-1.254-3.447-2.193-2.038-2.508-.626-1.567-4.7-2.664-5.8-4.074-1.881-2.037-1.88-1.253-2.507-2.038-1.881-2.193-1.253-2.194-2.821L723.56,437.3l-4.387-1.723-.47-1.411-2.351-2.82-.47-1.411-3.291-5.014-3.29.157-3.918-2.351-1.253-1.253-.314-1.724.784-1.881,2.194-.94-.314-2.037,5.955-2.507L721.21,408l7.051-.783,15.984-.47,2.194,1.88,1.567,3.134,4.231-.47,12.222-1.41,2.821.783,12.223,7.365,9.8,7.873-5.254,5.291-2.508,5.954-.47,6.111-1.567.784-1.1,2.664-2.35.627-2.037,3.447-2.664,2.664-2.194,3.291-1.567.783-3.447,3.291-2.821.157.94,3.134-4.857,5.327Z"/>
        <path id="GA" class="cls-6" d="M685.952,417.4l-4.7.784-8.148,1.1-8.3.862v2.115l.157,2.037.626,3.291,3.291,7.678,2.351,9.559,1.41,5.955,1.567,4.7,1.41,6.738,2.037,6.111,2.507,3.291.471,3.29,1.88.784.157,2.037-1.724,4.7-.47,3.134-.157,1.88,1.567,4.231.314,5.171-.784,2.351.627.783,1.41.784.627,3.291,2.507,3.76,1.41,1.411,7.679.156,10.488-.626,20.852-1.254,5.279-.654,4.436.027.157,2.821,2.507.783.314-4.231-1.567-4.387,1.1-1.567,5.641.783,4.824.308-.751-6.105,2.194-9.716,1.41-4.074-.47-2.507,3.232-6.053-.5-1.31-1.854.683-2.508-1.254-.626-2.037-1.254-3.447-2.194-2.037-2.507-.627-1.567-4.7-2.835-6.141-4.075-1.88-2.037-1.88-1.253-2.508-2.037-1.88-2.194-1.254-2.194-2.82-2.977-2.194-4.388-1.724-.47-1.41L715.5,431.69l-.47-1.41-3.29-4.757-3.291.156-4-2.95-1.254-1.253-.313-1.724.783-1.881,2.28-1.2-1.1-1.184.075-.282-5.641.94-6.738.783Z"/>
        <path id="AL" class="cls-6" d="M623.9,522.861l-1.566-14.73-2.664-18.177.157-13.633.783-30.087-.156-16.14.16-6.222,7.518-.359,26.952-2.508,8.649-.641-.143,2.115.157,2.037.626,3.291,3.291,7.678,2.351,9.559,1.41,5.955,1.567,4.7,1.41,6.738,2.037,6.111,2.508,3.291.47,3.29,1.88.784.157,2.037-1.724,4.7-.47,3.134-.157,1.88,1.567,4.231.314,5.171-.784,2.351.627.783,1.41.784,1,2.457h-6.112l-6.581.627-24.759,2.821L635.7,508.254l-.093,3.638,1.724,1.723,2.507,1.881.563,7.692-5.372,2.494-2.664-.314,2.664-1.88v-.94l-2.978-5.8-2.193-.627-1.411,4.231-1.253,2.664-.627-.157Z"/>
        <path id="NC" class="cls-6" d="M824.07,359.726l1.658,4.555,3.447,6.268,2.351,2.35.627,2.194-2.351.157.784.626-.314,4.075-2.507,1.253-.627,2.037-1.253,2.821-3.605,1.567-2.35-.314-1.41-.156-1.567-1.254.313,1.254v.94h1.88l.784,1.254-1.88,6.111h4.074l.627,1.567,2.193-2.194,1.254-.47-1.88,3.447-2.978,4.7h-1.253l-1.1-.47-2.664.627-5.015,2.351-6.268,5.171-3.29,4.544-1.881,6.268-.47,2.351-4.544.47-5.286,1.3-9.641-7.951-12.223-7.364-2.82-.784-12.223,1.41-4.145.727-1.567-3.134-2.879-2.051-15.984.47-7.051.783-8.776,4.388-5.954,2.507-1.567.313-5.641.941-6.739.783-6.581.47.485-3.93,1.723-1.41,2.664-.627.627-3.6,4.074-2.664,3.761-1.41,4.074-3.447,4.231-2.038.627-2.977,3.761-3.761.627-.156s0,1.1.783,1.1a8.551,8.551,0,0,1,1.881.314l2.193-3.448,2.038-.626,2.193.313,1.567-3.447,2.821-2.508.47-2.037v-3.839l4.388.705,6.917-1.253L753.02,374l16.61-2.507,19.311-3.878,19.128-4.037,11.015-2.71Zm3.776,31.976,2.507-2.429,3.056-2.507,1.489-.627.156-1.959-.626-5.955-1.411-2.272-.626-1.8.705-.235,2.664,5.328.391,4.309L836,386.844l-3.291,1.489-2.742,2.35-1.1,1.175Z"/>
        <path id="TN" class="cls-6" d="M693.161,381.2l-50.3,4.857-15.276,1.724-4.48.5-3.749-.027v3.761l-8.149.47-6.738.627-10.755.051-.257,5.656-2.073,6.083-.964,2.924-1.307,4.247-.314,2.507-3.917,2.194,1.41,3.447-.94,4.231-.939.765,7.033-.188,23.349-1.88,5.171-.157,7.835-.47,26.952-2.507,9.859-.784,8.162-.94,8.148-1.1,4.7-.784-.126-4.371,1.724-1.41,2.663-.627.627-3.6,4.074-2.664,3.761-1.41,4.074-3.447,4.231-2.038.847-3.417,4.2-3.761.627-.156s0,1.1.783,1.1a8.576,8.576,0,0,1,1.881.313l2.193-3.447,2.038-.627,2.193.313,1.567-3.447,2.051-2.177.58-.938.171-3.811-1.438-.279-2.351,1.88-7.678.157-11.627,1.842Z"/>
        <path id="MD" class="cls-6" d="M828.768,317.884l-5.952,1.252-5.628.157-1.787-6.881-2.037-9.4-2.194-5.485-1.249-4.263-7.275,1.572-14.42,2.737-36.3,7.319,1.1,4.858.94,5.485.314-.314,2.037-2.35,2.194-2.538,2.35-.6,1.41-1.41,1.724-2.508,1.254.627,2.82-.313,2.508-2.037,1.945-1.409,1.788-.47,1.594,1.095,2.821,1.41,1.88,1.724,1.176,1.489,4,1.645V312.1l5.327,1.253,1.11.526,1.368-1.966,2.794,1.909-1.239,2.406-.742,3.863-1.724,2.508v2.037l.627,1.723,4.909,1.315,4.179-.06,2.977.94,2.037.313.94-2.037-1.41-2.037v-1.724l-2.351-2.037-2.037-5.327,1.254-5.172-.157-2.037-1.253-1.253s1.41-1.567,1.41-2.194a9.867,9.867,0,0,1,.47-2.037l1.88-1.254,1.881-1.567.47.94-1.41,1.567-1.254,3.605.313,1.1,1.724.314.47,5.328-2.037.94.313,3.447.471-.156,1.1-1.881,1.567,1.724-1.567,1.253-.313,3.291,2.507,3.291,3.761.47,1.567-.784,3.137,4.055,1.317.52L826.6,326.5l1.946-3.9Zm-16.122,8.709,1.1,2.429.157,1.723,1.1,1.8s.862-.862.862-1.175-.705-2.977-.705-2.977l-.706-2.272Z"/>
        <path id="WV" class="cls-6" d="M750.842,304.955l1.078,4.793,1.05,6.695,3.451-2.664,2.194-2.978,2.46-.6,1.41-1.411,1.724-2.507,1.144.627,2.82-.313,2.508-2.037,1.945-1.409,1.788-.47,1.264.985,2.161,1.08,1.88,1.724,1.332,1.254-.138,4.527-5.485-2.977-4.387-1.724-.157,5.172-.47,2.037-1.567,2.664-.627,1.567-2.977,2.35-.47,2.194-3.291.313-.313,2.978-1.1,5.327h-2.508l-1.253-.783-1.567-2.664-1.724.157-.313,4.231-2.037,6.424-4.858,10.5.783,1.254-.156,2.664-2.037,1.88-1.411-.313-3.134,2.35-2.507-.94-1.724,4.544s-3.6.784-4.23.941-2.351-1.254-2.351-1.254l-2.351,2.194-2.507.627-2.82-.784-1.254-1.254L717.988,359l-3.046-1.927-2.507-2.664-2.821-3.6-.627-2.194-2.507-1.41-.783-1.567-.235-5.093,2.115-.079,1.88-.783.157-2.664,1.567-1.41.157-4.858.94-3.761,1.254-.627,1.253,1.1.47,1.724,1.724-.94.47-1.567-1.1-1.724V322.6l.94-1.254,2.194-3.291,1.254-1.41,2.037.47,2.194-1.567,2.977-3.291,2.194-3.76.313-5.485.47-4.858v-4.544l-1.1-2.977.94-1.411,1.244-1.253,3.384,19.219,4.489-.728Z"/>
        <path id="KY" class="cls-6" d="M717.132,359.092l-2.253,2.6L710.8,365.14l-4.167,5.721-1.724,1.724v2.037l-3.761,2.037-5.484,3.291-3.412.373-50.276,4.748L626.7,386.8l-4.48.5-3.749-.027-.22,4.091-7.929.14-6.738.627-10.11.2,1.854-.215,2.113-1.708,1.994-1.108.222-3.1.887-1.773-1.558-2.461.777-1.848,2.194-1.724,2.037-.627,2.664,1.254,3.447,1.253,1.1-.313.157-2.194-1.254-2.35.314-2.194,1.88-1.41,2.507-.627,1.567-.627-.783-1.724-.627-1.88,1.1-.784,1.019-3.212,2.9-1.645,5.641-.941,3.447-.47,1.41,1.881,1.724.783,1.724-3.134,2.82-1.41,1.881,1.567.783,1.1,2.037-.47-.156-3.291,2.82-1.567,1.1-.783,1.1,1.567h4.545l.783-2.038-.313-2.193,2.82-3.448,4.545-3.761.47-4.387,2.664-.314,3.76-1.723,2.664-1.881-.313-1.88-1.41-1.41.548-2.116,4-.235,2.35-.783,2.821,1.567,1.567,4.23,5.641.314,1.724,1.724,2.037.156,2.351-1.41,2.977.47,1.253,1.41,2.664-2.507,1.724-1.253h1.567l.627,2.663,1.724.941,2.347,2.147.157,5.328.783,1.567,2.507,1.41.627,2.194,2.821,3.6,2.507,2.664Z"/>
        <path id="TX" class="cls-6" d="M363.594,393.557l21.994,1.053,30.139,1.108-2.263,22.736-.288,17.6.066,2.018,4.211,3.7,1.683.8,1.754.245.665-1.217.863.84,1.683.466,1.555-.707,1.1.4-.287,3.3,4.144,1,2.593.8,3.834.509,2.126,1.773,3.15-1.528,2.7.354,1.971,2.7,1.042.311-.156,1.905,2.994,1.132,2.683-1.75,1.461.354,2.282.155.42,1.816,4.5,1.928,2.575-.2,1.928-3.989h.33L468.158,455l4.3.976,3.235,1.174,3.192.731,2.084-.731.82-2.437h3.589l1.838.73,2.971-1.527h.641l.354,1.084h4.144l2.33-1.217,1.617.288,1.372,1.816,2.791,1.617,3.414,1.042,2.659,1.374,2.372,1.573,3.192-.863,1.882.952.5,9.829.325,9.4.665,9.242.509,3.923,2.593,4.455,1.042,3.942,3.744,6.1.533,2.791.509.976-.665,7.266-2.57,4.253.93,2.773-.354,2.437-.821,7.092-1.329,2.636.585,4.251-5.491,1.537-9.558,4.387-.941,1.881-2.507,1.88-2.037,1.41-1.253.784L495.874,560l-2.664,2.037-5.171,3.134-5.484,2.351-6.112,3.29-1.723,1.411-5.642,3.447-3.29.627-3.761,5.328-3.918.313-.94,1.88,2.194,1.881-1.41,5.328-1.254,4.387-1.1,3.761-.783,4.388.783,2.35,1.724,6.738.94,5.955,1.724,2.664-.94,1.41-2.978,1.88-5.484-3.76-5.328-1.1-1.254.47-3.134-.627-4.074-2.977-5.014-1.1-7.365-3.291-2.037-3.761-1.254-6.268-3.134-1.88-.627-2.194.627-.627.314-3.29-1.254-.627-.627-.94,1.254-4.231-1.567-2.194-3.134-1.254-3.291-4.231-3.447-6.424-4.075-2.507.157-1.881-5.171-11.909-.783-4.074-1.724-1.881-.157-1.41-5.8-5.171-2.507-2.977v-1.1l-2.507-2.037-6.582-1.1-7.208-.627L366.91,535.4l-4.388,1.724-3.447,1.41-2.194,3.134-.94,3.6-4.231,5.955-2.351,2.35-2.507-.94-1.723-1.1-1.881-.627-3.761-2.193v-.627l-1.723-1.881-5.015-2.037-7.208-7.521-2.194-4.545v-7.835L320.213,518l-.47-2.664-1.567-.94-1.1-2.037-4.857-2.037-1.254-1.567-6.9-7.678-1.253-3.134-4.545-2.194-1.41-4.231-2.507-2.821-1.881-.47-.629-4.534,7.756.665,28.144,2.659,28.145,1.552,2.216-23.048,3.767-53.85,1.551-18.172,1.33.028m95.94,226.8-.549-6.895-2.664-6.973-.548-6.816,1.488-7.992,3.213-6.66,3.369-5.249,3.056-3.448.626.235-4.622,6.425-4.231,6.346-1.959,6.425-.313,5.014.861,5.955,2.508,6.973.47,5.015.156,1.41Z"/>
        <path id="MS" class="cls-6" d="M622.891,523.054l-.247,1.217H617.63l-1.41-.783-2.037-.314-6.582,1.881-1.723-.784-2.508,4.075-1.068.754-1.09-2.412-1.108-3.767-3.324-3.1,1.108-7.313-.665-.886-1.772.221-7.978.665-23.491.665-.443-1.551.665-7.757,3.324-5.983,5.1-8.864-.887-2h1.109l.664-3.1-2.216-1.773.222-1.773-2-4.432-.277-5.18,1.33-2.576-.388-4.211-1.329-2.881,1.329-1.329-1.329-2L569.3,456l.886-5.983,2.881-2.659-.665-2,3.546-5.1,2.659-.886v-2.438l-.664-1.33,2.659-5.1,2.659-1.108.1-3.307,8.409-.075,23.349-1.881,4.44-.221.008,6.176.156,16.14-.783,30.087-.157,13.633,2.664,18.177Z"/>
        <path id="MO" class="cls-6" d="M556.231,312.284l-2.443-2.993-1.108-2.216-7.534.665-9.53.443-24.6.886-13.075.222-7.645.111-2.216.111,1.218,2.437-.221,2.216,2.438,3.768,2.991,3.989,2.992,2.659,2.216.222,1.33.886v2.881l-1.773,1.551-.443,2.216,1.994,3.324,2.438,2.881,2.437,1.773,1.33,11.3-.665,34.238.222,4.543.443,5.219,22.714-.114,22.494-.664,20.166-.777,11.3-.223,2.1,3.321-.663,3.206-2.992,2.329-.555,1.781,5.213.443,3.776-.664,1.664-5.326.632-5.677,2.247-1.962,1.66-1.442,1.994-1,.112-2.772.557-1.663-1-1.695-2.661.14-2.1-2.544-1.331-4.1.776-2.441-1.884-3.322-1.775-4.436-4.652-.775-6.755-5.426L576.4,355.83l.775-3.1,2-5.872.445-2.776-1.889-1-6.645-.773-1-1.659-.108-4.1-5.319-3.326-6.761-7.533-2.216-7.091-.224-4.1Z"/>
        <path id="AR" class="cls-6" d="M590.315,404.781l-3.729.909-5.983-.443.665-2.881,3.1-2.659.443-2.216-1.773-2.881-10.637.443-20.166.887-22.6.664-22.6.444,1.551,6.648v7.978l1.33,10.637.222,36.676,2.216,1.884,2.881-1.33,2.659,1.108.417,10.007,22.184-.138,18.285-.777,9.811-.191,1.11-2.026-.278-3.441-1.769-2.881,1.549-1.439-1.549-2.435.663-2.433,1.326-5.433,2.441-2-.665-2.215,3.546-5.207,2.659-1.326-.11-1.448-.334-1.77,2.769-5.427,2.329-1.218.373-3.322,1.716-1.2.83-4.1-1.3-3.887,3.917-2.3.534-1.957,1.2-4.137Z"/>
        <path id="OK" class="cls-6" d="M381.322,383.086l-10.36-.443-6.233-.471.25.194-.682,10.1,21.291,1.364L416.66,395.1,414.4,418.765l-.443,17.286.221,1.551,4.211,3.546,1.994,1.108.665-.222.665-2,1.33,1.773h1.994v-1.329l2.66,1.329-.444,3.768,3.989.221,2.438,1.108,3.989.665,2.438,1.773,2.216-1.994,3.324.664,2.437,3.324h.887v2.217l2.216.664,2.216-2.216,1.773.665h2.438l.886,2.438,4.654,1.773,1.329-.665,1.773-3.989h1.108l1.108,1.994,3.989.665,3.546,1.33,2.881.886,1.773-.886.665-2.438h4.21l2,.887,2.659-2H491.3l.665,1.551h3.989l1.551-1.994,1.773.443,1.994,2.438,3.1,1.773,3.1.886,1.882,1.085-.377-36.075-1.33-10.638-.156-8.6L506.1,397.2l-.755-6.959-.066-3.7-11.764.309-44.986-.444-43.657-1.994Z"/>
        <path id="LA" class="cls-6" d="M601.22,528.894l-1-2.536-1.108-3-3.214-3.433.888-6.543-.115-1.106-1.222.331-7.978.885-24.261.445-.663-2.321.885-8.2,3.214-5.764,4.877-8.424-.556-2.325,1.218-.66.444-1.892-2.216-1.993-.108-1.883-1.774-4.212-.443-5.759-9.426.11-18.615.887-21.524.027.028,9.28.665,9.086.664,3.768,2.438,3.988.886,4.876,4.211,5.318.222,3.1.664.665-.664,8.2-2.881,4.876,1.551,1.994-.665,2.438-.665,7.091-1.329,3.1.118,3.5,4.543-1.473,7.835-.314,10.029,3.448,6.268,1.1,3.6-1.411,3.134,1.1,3.134.94.783-2.037-3.134-1.1-2.507.47-2.664-1.567s.157-1.253.784-1.41,2.977-.94,2.977-.94l1.724,1.41L562,540.1l3.134.627,1.41,2.35.313,2.194,4.388.314,1.724,1.723-.784,1.567-1.254.784,1.567,1.567,8.149,3.447,3.447-1.253.94-2.351,2.508-.627,1.723-1.41,1.254.94.783,2.821-2.193.783.626.627,3.291-1.253,2.194-3.291.783-.47-2.037-.314.784-1.567-.157-1.41,2.037-.47,1.1-1.254.627.784s-.157,2.977.627,2.977,4.074.627,4.074.627l3.917,1.88.941,1.411h2.82l1.1.94,2.194-2.978V548.4h-1.254l-3.29-2.664-5.642-.783-3.134-2.194,1.1-2.664,2.194.313.157-.626-1.724-.941v-.47h3.134l1.724-2.977-1.254-1.88-.313-2.664-1.41.156-1.881,2.038-.627,2.507-2.977-.627-.94-1.724,1.724-1.88,1.958-1.724Z"/>
        <path id="path3433" class="cls-6" d="M820.969,331.4l-.14-1.887,6.256-2.472-.747,3.119-2.831,3.663-.4,4.445.448,3.287-1.772,4.825-2.1,1.857-1.425-4.5.432-5.282,1.538-4.055Zm2.209,27.433-56.389,12.189-36.279,5.117-6.473-.363-2.506,1.867-7.114.214-8.125.948-8.652.922,8.22-4.8-.012-2.012,1.473-2.08,10.23-11.148,3.826,4.34,3.667.934,2.465-1.1,2.169-1.271,2.458,1.3,3.794-1.384,1.82-4.416,2.521.523,2.767-2.066,1.744.479,2.741-3.564.337-2.019-.934-1.237.972-1.809,5.113-11.9.6-5.56,1.191-.507,2.111,2.368,3.816-.292,1.87-7.341,2.708-.544,1.017-2.657,2.5-2.275,1.229-2.27,1.458-3.25.082-4.912,9.52,3.7c.66.33.636-4.637.636-4.637l3.926,1.335-.448,2.548,7.906,2.85,1.253,1.739-.841,3.569-1.224,1.285-.491,1.693.479,2.329,1.9,1.239,3.8,1.4,2.858.938,4.708.913,2.086,2.025,3.092.39.842,1.163-.426,4.546,1.332,1.069-.464,1.871,1.192.766-.215,1.342-2.611-.092.086,1.566,2.211,1.5.118,1.369,1.718,1.73.477,2.447-2.475,1.339,1.524,1.448L819.681,353Z"/>
      </g>
    </g>
    <path id="path959" class="cls-8" d="M898.6,249.454l-30.981-13.091"/>
    <path id="path963" class="cls-9" d="M836.774,353.064l-42.852-39.456"/>
    <path id="path3138" class="cls-8" d="M849.105,338.458,815.831,320.92"/>
    <path id="path3140" class="cls-8" d="M853.141,316.57,820.023,310.6"/>
    <path id="path3149" class="cls-8" d="M897.649,221.985l-34.433.065"/>
    <path id="path1361" class="cls-6" d="M794.652,316.468l-1.044-1.587-.983-.817,1.066-1.566,2.164,1.464Z"/>
    <path id="path3466" class="cls-8" d="M875.018,263.784l-28.191-21.96"/>
    <path id="path3472" class="cls-8" d="M869.363,284.261,829.7,281.686"/>
    <path id="path3474" class="cls-8" d="M837.86,192.9l-25.121-35.289"/>
    <path id="path3476" class="cls-8" d="M858.458,193.146l-13-49.587"/>
    <switch><text class="cls-10" transform="translate(97.37 196.936)" id="trsvg73-ro" systemLanguage="ro"><tspan id="trsvg5-ro">OR</tspan></text><text class="cls-10" transform="translate(97.37 196.936)" id="trsvg73"><tspan id="trsvg5">OR</tspan></text></switch>
    <switch><text class="cls-10" transform="translate(135.231 306.196)" id="trsvg74-ro" systemLanguage="ro"><tspan id="trsvg6-ro">NV</tspan></text><text class="cls-10" transform="translate(135.231 306.196)" id="trsvg74"><tspan id="trsvg6">NV</tspan></text></switch>
    <switch><text class="cls-10" transform="translate(271.59 159.844)" id="trsvg75-ro" systemLanguage="ro"><tspan id="trsvg7-ro">MT</tspan></text><text class="cls-10" transform="translate(271.59 159.844)" id="trsvg75"><tspan id="trsvg7">MT</tspan></text></switch>
    <switch><text class="cls-10" transform="translate(194.222 224.246)" id="trsvg76-ro" systemLanguage="ro"><tspan id="trsvg8-ro">ID</tspan></text><text class="cls-10" transform="translate(194.222 224.246)" id="trsvg76"><tspan id="trsvg8">ID</tspan></text></switch>
    <switch><text class="cls-10" transform="translate(290.373 252.804)" id="trsvg77-ro" systemLanguage="ro"><tspan id="trsvg9-ro">W</tspan><tspan class="cls-11" x="14.158" y="0" id="trsvg10-ro">Y</tspan></text><text class="cls-10" transform="translate(290.373 252.804)" id="trsvg77"><tspan id="trsvg9">W</tspan><tspan class="cls-11" x="14.158" y="0" id="trsvg10">Y</tspan></text></switch>
    <switch><text class="cls-10" transform="translate(293.871 439.521)" id="trsvg78-ro" systemLanguage="ro"><tspan id="trsvg11-ro">NM</tspan></text><text class="cls-10" transform="translate(293.871 439.521)" id="trsvg78"><tspan id="trsvg11">NM</tspan></text></switch>
    <switch><text class="cls-10" transform="translate(420.517 516.959)" id="trsvg79-ro" systemLanguage="ro"><tspan id="trsvg12-ro">TX</tspan></text><text class="cls-10" transform="translate(420.517 516.959)" id="trsvg79"><tspan id="trsvg12">TX</tspan></text></switch>
    <switch><text class="cls-10" transform="translate(451.562 425.218)" id="trsvg80-ro" systemLanguage="ro"><tspan id="trsvg13-ro">OK</tspan></text><text class="cls-10" transform="translate(451.562 425.218)" id="trsvg80"><tspan id="trsvg13">OK</tspan></text></switch>
    <switch><text class="cls-10" transform="translate(436.99 362.036)" id="trsvg81-ro" systemLanguage="ro"><tspan id="trsvg14-ro">KS</tspan></text><text class="cls-10" transform="translate(436.99 362.036)" id="trsvg81"><tspan id="trsvg14">KS</tspan></text></switch>
    <switch><text class="cls-10" transform="translate(413.583 294.797)" id="trsvg82-ro" systemLanguage="ro"><tspan id="trsvg15-ro">NE</tspan></text><text class="cls-10" transform="translate(413.583 294.797)" id="trsvg82"><tspan id="trsvg15">NE</tspan></text></switch>
    <switch><text class="cls-10" transform="translate(408.907 232.472)" id="trsvg83-ro" systemLanguage="ro"><tspan id="trsvg16-ro">SD</tspan></text><text class="cls-10" transform="translate(408.907 232.472)" id="trsvg83"><tspan id="trsvg16">SD</tspan></text></switch>
    <switch><text class="cls-10" transform="translate(514.389 283.687)" id="trsvg84-ro" systemLanguage="ro"><tspan id="trsvg17-ro">I</tspan><tspan class="cls-12" x="4.167" y="0" id="trsvg18-ro">A</tspan></text><text class="cls-10" transform="translate(514.389 283.687)" id="trsvg84"><tspan id="trsvg17">I</tspan><tspan class="cls-12" x="4.167" y="0" id="trsvg18">A</tspan></text></switch>
    <switch><text class="cls-10" transform="translate(586.949 325.967)" id="trsvg85-ro" systemLanguage="ro"><tspan id="trsvg19-ro">I</tspan><tspan class="cls-11" x="4.167" y="0" id="trsvg20-ro">L</tspan></text><text class="cls-10" transform="translate(586.949 325.967)" id="trsvg85"><tspan id="trsvg19">I</tspan><tspan class="cls-11" x="4.167" y="0" id="trsvg20">L</tspan></text></switch>
    <switch><text class="cls-10" transform="translate(531.684 367.306)" id="trsvg86-ro" systemLanguage="ro"><tspan id="trsvg21-ro">MO</tspan></text><text class="cls-10" transform="translate(531.684 367.306)" id="trsvg86"><tspan id="trsvg21">MO</tspan></text></switch>
    <switch><text class="cls-10" transform="translate(530.706 439.521)" id="trsvg87-ro" systemLanguage="ro"><tspan id="trsvg22-ro">AR</tspan></text><text class="cls-10" transform="translate(530.706 439.521)" id="trsvg87"><tspan id="trsvg22">AR</tspan></text></switch>
    <switch><text class="cls-10" transform="translate(636.282 473.023)" id="trsvg88-ro" systemLanguage="ro"><tspan id="trsvg23-ro">A</tspan><tspan class="cls-11" x="10.833" y="0" id="trsvg24-ro">L</tspan></text><text class="cls-10" transform="translate(636.282 473.023)" id="trsvg88"><tspan id="trsvg23">A</tspan><tspan class="cls-11" x="10.833" y="0" id="trsvg24">L</tspan></text></switch>
    <switch><text class="cls-10" transform="translate(741.504 439.521)" id="trsvg89-ro" systemLanguage="ro"><tspan id="trsvg25-ro">SC</tspan></text><text class="cls-10" transform="translate(741.504 439.521)" id="trsvg89"><tspan id="trsvg25">SC</tspan></text></switch>
    <switch><text class="cls-10" transform="translate(770.219 396.179)" id="trsvg90-ro" systemLanguage="ro"><tspan id="trsvg26-ro">NC</tspan></text><text class="cls-10" transform="translate(770.219 396.179)" id="trsvg90"><tspan id="trsvg26">NC</tspan></text></switch>
    <switch><text class="cls-13" transform="translate(771.467 351.424)" id="trsvg91-ro" systemLanguage="ro"><tspan id="trsvg27-ro">V</tspan><tspan class="cls-12" x="8.892" y="0" id="trsvg28-ro">A</tspan></text><text class="cls-13" transform="translate(771.467 351.424)" id="trsvg91"><tspan id="trsvg27">V</tspan><tspan class="cls-12" x="8.892" y="0" id="trsvg28">A</tspan></text></switch>
    <switch><text class="cls-14" transform="translate(837.572 365.754)" id="trsvg92-ro" systemLanguage="ro"><tspan id="trsvg29-ro">DC</tspan></text><text class="cls-14" transform="translate(837.572 365.754)" id="trsvg92"><tspan id="trsvg29">DC</tspan></text></switch>
    <switch><text class="cls-14" transform="translate(853.142 345.284)" id="trsvg93-ro" systemLanguage="ro"><tspan id="trsvg30-ro">MD</tspan></text><text class="cls-14" transform="translate(853.142 345.284)" id="trsvg93"><tspan id="trsvg30">MD</tspan></text></switch>
    <switch><text class="cls-14" transform="translate(856.082 322.293)" id="trsvg94-ro" systemLanguage="ro"><tspan id="trsvg31-ro">DE</tspan></text><text class="cls-14" transform="translate(856.082 322.293)" id="trsvg94"><tspan id="trsvg31">DE</tspan></text></switch>
    <switch><text class="cls-10" transform="translate(758.137 581.302)" id="trsvg95-ro" systemLanguage="ro"><tspan id="trsvg32-ro">F</tspan><tspan class="cls-11" x="9.163" y="0" id="trsvg33-ro">L</tspan></text><text class="cls-10" transform="translate(758.137 581.302)" id="trsvg95"><tspan id="trsvg32">F</tspan><tspan class="cls-11" x="9.163" y="0" id="trsvg33">L</tspan></text></switch>
    <switch><text class="cls-10" transform="translate(699.083 473.023)" id="trsvg96-ro" systemLanguage="ro"><tspan id="trsvg34-ro">G</tspan><tspan class="cls-12" x="11.667" y="0" id="trsvg35-ro">A</tspan></text><text class="cls-10" transform="translate(699.083 473.023)" id="trsvg96"><tspan id="trsvg34">G</tspan><tspan class="cls-12" x="11.667" y="0" id="trsvg35">A</tspan></text></switch>
    <switch><text class="cls-10" transform="translate(584.898 483.518)" id="trsvg97-ro" systemLanguage="ro"><tspan id="trsvg36-ro">MS</tspan></text><text class="cls-10" transform="translate(584.898 483.518)" id="trsvg97"><tspan id="trsvg36">MS</tspan></text></switch>
    <switch><text class="cls-10" transform="translate(659.53 369.583)" id="trsvg98-ro" systemLanguage="ro"><tspan id="trsvg37-ro">K</tspan><tspan class="cls-11" x="10.833" y="0" id="trsvg38-ro">Y</tspan></text><text class="cls-10" transform="translate(659.53 369.583)" id="trsvg98"><tspan id="trsvg37">K</tspan><tspan class="cls-11" x="10.833" y="0" id="trsvg38">Y</tspan></text></switch>
    <switch><text class="cls-10" transform="translate(641.455 409.336)" id="trsvg99-ro" systemLanguage="ro"><tspan id="trsvg39-ro">TN</tspan></text><text class="cls-10" transform="translate(641.455 409.336)" id="trsvg99"><tspan id="trsvg39">TN</tspan></text></switch>
    <switch><text class="cls-10" transform="translate(536.605 524.714)" id="trsvg100-ro" systemLanguage="ro"><tspan id="trsvg40-ro">L</tspan><tspan class="cls-15" x="9.162" y="0" id="trsvg41-ro">A</tspan></text><text class="cls-10" transform="translate(536.605 524.714)" id="trsvg100"><tspan id="trsvg40">L</tspan><tspan class="cls-15" x="9.162" y="0" id="trsvg41">A</tspan></text></switch>
    <switch><text class="cls-10" transform="translate(721.006 344.024)" id="trsvg101-ro" systemLanguage="ro"><tspan id="trsvg42-ro">WV</tspan></text><text class="cls-10" transform="translate(721.006 344.024)" id="trsvg101"><tspan id="trsvg42">WV</tspan></text></switch>
    <switch><text class="cls-10" transform="translate(684.604 311.236)" id="trsvg102-ro" systemLanguage="ro"><tspan id="trsvg43-ro">OH</tspan></text><text class="cls-10" transform="translate(684.604 311.236)" id="trsvg102"><tspan id="trsvg43">OH</tspan></text></switch>
    <switch><text class="cls-13" transform="translate(766.093 280.994)" id="trsvg103-ro" systemLanguage="ro"><tspan id="trsvg44-ro">P</tspan><tspan class="cls-12" x="8.892" y="0" id="trsvg45-ro">A</tspan></text><text class="cls-13" transform="translate(766.093 280.994)" id="trsvg103"><tspan id="trsvg44">P</tspan><tspan class="cls-12" x="8.892" y="0" id="trsvg45">A</tspan></text></switch>
    <switch><text class="cls-10" transform="translate(800.246 228.725)" id="trsvg104-ro" systemLanguage="ro"><tspan id="trsvg46-ro">N</tspan><tspan class="cls-16" x="10.832" y="0" id="trsvg47-ro">Y</tspan></text><text class="cls-10" transform="translate(800.246 228.725)" id="trsvg104"><tspan id="trsvg46">N</tspan><tspan class="cls-16" x="10.832" y="0" id="trsvg47">Y</tspan></text></switch>
    <switch><text class="cls-17" transform="translate(873.168 290.474)" id="trsvg105-ro" systemLanguage="ro"><tspan id="trsvg48-ro">NJ</tspan></text><text class="cls-17" transform="translate(873.168 290.474)" id="trsvg105"><tspan id="trsvg48">NJ</tspan></text></switch>
    <switch><text class="cls-17" transform="translate(878.129 271.395)" id="trsvg106-ro" systemLanguage="ro"><tspan id="trsvg49-ro">CT</tspan></text><text class="cls-17" transform="translate(878.129 271.395)" id="trsvg106"><tspan id="trsvg49">CT</tspan></text></switch>
    <switch><text class="cls-17" transform="translate(900.634 254.903)" id="trsvg107-ro" systemLanguage="ro"><tspan id="trsvg50-ro">RI</tspan></text><text class="cls-17" transform="translate(900.634 254.903)" id="trsvg107"><tspan id="trsvg50">RI</tspan></text></switch>
    <switch><text class="cls-17" transform="translate(900.634 226.526)" id="trsvg108-ro" systemLanguage="ro"><tspan id="trsvg51-ro">M</tspan><tspan class="cls-12" x="12.495" y="0" id="trsvg52-ro">A</tspan></text><text class="cls-17" transform="translate(900.634 226.526)" id="trsvg108"><tspan id="trsvg51">M</tspan><tspan class="cls-12" x="12.495" y="0" id="trsvg52">A</tspan></text></switch>
    <switch><text class="cls-18" transform="translate(795.855 154.431)" id="trsvg109-ro" systemLanguage="ro"><tspan id="trsvg53-ro">VT</tspan></text><text class="cls-18" transform="translate(795.855 154.431)" id="trsvg109"><tspan id="trsvg53">VT</tspan></text></switch>
    <switch><text class="cls-18" transform="translate(832.469 140.172)" id="trsvg110-ro" systemLanguage="ro"><tspan id="trsvg54-ro">NH</tspan></text><text class="cls-18" transform="translate(832.469 140.172)" id="trsvg110"><tspan id="trsvg54">NH</tspan></text></switch>
    <switch><text class="cls-10" transform="translate(871.856 157.614)" id="trsvg111-ro" systemLanguage="ro"><tspan id="trsvg55-ro">ME</tspan></text><text class="cls-10" transform="translate(871.856 157.614)" id="trsvg111"><tspan id="trsvg55">ME</tspan></text></switch>
    <switch><text class="cls-10" transform="translate(636.628 321.145)" id="trsvg112-ro" systemLanguage="ro"><tspan id="trsvg56-ro">IN</tspan></text><text class="cls-10" transform="translate(636.628 321.145)" id="trsvg112"><tspan id="trsvg56">IN</tspan></text></switch>
    <switch><text class="cls-10" transform="translate(652.163 259.248)" id="trsvg113-ro" systemLanguage="ro"><tspan id="trsvg57-ro">MI</tspan></text><text class="cls-10" transform="translate(652.163 259.248)" id="trsvg113"><tspan id="trsvg57">MI</tspan></text></switch>
    <switch><text class="cls-10" transform="translate(568.02 229.204)" id="trsvg114-ro" systemLanguage="ro"><tspan id="trsvg58-ro">WI</tspan></text><text class="cls-10" transform="translate(568.02 229.204)" id="trsvg114"><tspan id="trsvg58">WI</tspan></text></switch>
    <switch><text class="cls-10" transform="translate(494.432 205.591)" id="trsvg115-ro" systemLanguage="ro"><tspan id="trsvg59-ro">MN</tspan></text><text class="cls-10" transform="translate(494.432 205.591)" id="trsvg115"><tspan id="trsvg59">MN</tspan></text></switch>
    <switch><text class="cls-10" transform="translate(408.494 166.995)" id="trsvg116-ro" systemLanguage="ro"><tspan id="trsvg60-ro">ND</tspan></text><text class="cls-10" transform="translate(408.494 166.995)" id="trsvg116"><tspan id="trsvg60">ND</tspan></text></switch>
    <switch><text class="cls-10" transform="translate(201.525 427.273)" id="trsvg117-ro" systemLanguage="ro"><tspan id="trsvg61-ro">AZ</tspan></text><text class="cls-10" transform="translate(201.525 427.273)" id="trsvg117"><tspan id="trsvg61">AZ</tspan></text></switch>
    <switch><text class="cls-10" transform="translate(313.649 344.024)" id="trsvg118-ro" systemLanguage="ro"><tspan id="trsvg62-ro">CO</tspan></text><text class="cls-10" transform="translate(313.649 344.024)" id="trsvg118"><tspan id="trsvg62">CO</tspan></text></switch>
    <switch><text class="cls-10" transform="translate(216.959 326.21)" id="trsvg119-ro" systemLanguage="ro"><tspan id="trsvg63-ro">UT</tspan></text><text class="cls-10" transform="translate(216.959 326.21)" id="trsvg119"><tspan id="trsvg63">UT</tspan></text></switch>
    <switch><text class="cls-19" transform="translate(121.367 124.946)" id="trsvg120-ro" systemLanguage="ro"><tspan id="trsvg64-ro">W</tspan><tspan class="cls-12" x="13.33" y="0" id="trsvg65-ro">A</tspan></text><text class="cls-19" transform="translate(121.367 124.946)" id="trsvg120"><tspan id="trsvg64">W</tspan><tspan class="cls-12" x="13.33" y="0" id="trsvg65">A</tspan></text></switch>
    <switch><text class="cls-10" transform="translate(71.119 339.22)" id="trsvg121-ro" systemLanguage="ro"><tspan id="trsvg66-ro">C</tspan><tspan class="cls-12" x="10.833" y="0" id="trsvg67-ro">A</tspan></text><text class="cls-10" transform="translate(71.119 339.22)" id="trsvg121"><tspan id="trsvg66">C</tspan><tspan class="cls-12" x="10.833" y="0" id="trsvg67">A</tspan></text></switch>
    <g>
      <rect class="cls-20" x="79.292" y="500.39" width="24.601" height="24.601"/>
      <rect class="cls-21" x="79.292" y="531.561" width="24.601" height="24.601"/>
      <rect class="cls-22" x="79.292" y="562.731" width="24.601" height="24.601"/>
      <rect class="cls-23" x="79.292" y="593.901" width="24.601" height="24.601"/>
      <switch><text class="cls-24" transform="translate(116.738 609.303)" id="trsvg122-ro" systemLanguage="ro"><tspan id="trsvg68-ro">Interzis&#x103;</tspan></text><text class="cls-24" transform="translate(116.738 609.303)" id="trsvg122"><tspan id="trsvg68">Forbidden</tspan></text></switch>
      <switch><text class="cls-24" transform="translate(116.738 578.133)" id="trsvg123-ro" systemLanguage="ro"><tspan id="trsvg69-ro">Op&#x21B;ional&#x103; sau limitat&#x103;</tspan></text><text class="cls-24" transform="translate(116.738 578.133)" id="trsvg123"><tspan id="trsvg69">Optional or limited</tspan></text></switch>
      <switch><text class="cls-24" transform="translate(116.738 546.963)" id="trsvg124-ro" systemLanguage="ro"><tspan id="trsvg70-ro">Nelegiferat&#x103;</tspan></text><text class="cls-24" transform="translate(116.738 546.963)" id="trsvg124"><tspan id="trsvg70">No legislation</tspan></text></switch>
      <switch><text class="cls-24" transform="translate(116.738 515.792)" id="trsvg125-ro" systemLanguage="ro"><tspan id="trsvg71-ro">Obligatorie</tspan></text><text class="cls-24" transform="translate(116.738 515.792)" id="trsvg125"><tspan id="trsvg71">Required</tspan></text></switch>
    </g>
  </g>
</svg>
